<svg xmlns="http://www.w3.org/2000/svg" width="26.033" height="35.5" viewBox="0 0 26.033 35.5">
  <g id="Group_107" data-name="Group 107" transform="translate(-302 -536)">
    <g id="laundry" transform="translate(301.5 536)">
      <path id="Path_916" data-name="Path 916" d="M24.758,0H2.275A1.775,1.775,0,0,0,.5,1.775v28.4A1.775,1.775,0,0,0,2.275,31.95h.757L4.081,35.1a.592.592,0,0,0,.561.4h3.55a.592.592,0,0,0,.561-.4L9.8,31.95h7.431L18.281,35.1a.592.592,0,0,0,.561.4h3.55a.592.592,0,0,0,.561-.4L24,31.95h.757a1.775,1.775,0,0,0,1.775-1.775V1.775A1.775,1.775,0,0,0,24.758,0ZM1.683,1.775a.592.592,0,0,1,.592-.592H24.758a.592.592,0,0,1,.592.592V7.1H1.683ZM7.765,34.317h-2.7L4.28,31.95H8.554Zm14.2,0h-2.7L18.48,31.95h4.274Zm2.793-3.55H2.275a.592.592,0,0,1-.592-.592V8.283H25.35V30.175A.592.592,0,0,1,24.758,30.767Zm0,0" fill="#01a3f0"/>
      <path id="Path_917" data-name="Path 917" d="M74.25,152.875a8.875,8.875,0,1,0-8.875,8.875A8.875,8.875,0,0,0,74.25,152.875Zm-8.875,7.692a7.692,7.692,0,1,1,7.692-7.692A7.692,7.692,0,0,1,65.375,160.567Zm0,0" transform="translate(-51.858 -133.35)" fill="#01a3f0"/>
      <path id="Path_918" data-name="Path 918" d="M92.034,172.516c-.007-.018-.016-.033-.024-.05a.572.572,0,0,0-.033-.067,7.1,7.1,0,1,0,.042,5.272c0-.007,0-.014,0-.02a.636.636,0,0,0,.041-.186c0-.018.011-.033.011-.051v-.006a.594.594,0,0,0-.036-.2s0-.008-.006-.013a.6.6,0,0,0-.067-.134,2.5,2.5,0,0,1-.483-1.386V174.5a2.5,2.5,0,0,1,.483-1.386.6.6,0,0,0,.067-.134s0-.008.006-.013a.594.594,0,0,0,.036-.2v-.047A.558.558,0,0,0,92.034,172.516ZM85.4,181a5.917,5.917,0,1,1,5.416-8.292A3.557,3.557,0,0,0,90.3,174.5v1.183a3.519,3.519,0,0,0,.519,1.78A5.963,5.963,0,0,1,85.4,181Zm0,0" transform="translate(-72.051 -155.563)" fill="#01a3f0"/>
      <path id="Path_919" data-name="Path 919" d="M34.275,32a1.775,1.775,0,1,0,1.775,1.775A1.775,1.775,0,0,0,34.275,32Zm0,2.367a.592.592,0,1,1,.592-.592A.592.592,0,0,1,34.275,34.367Zm0,0" transform="translate(-29.633 -29.633)" fill="#01a3f0"/>
      <path id="Path_920" data-name="Path 920" d="M90.275,48H89.092a.592.592,0,1,0,0,1.183h1.183a.592.592,0,0,0,0-1.183Zm0,0" transform="translate(-81.492 -44.45)" fill="#01a3f0"/>
      <path id="Path_921" data-name="Path 921" d="M130.275,48h-1.183a.592.592,0,0,0,0,1.183h1.183a.592.592,0,1,0,0-1.183Zm0,0" transform="translate(-118.533 -44.45)" fill="#01a3f0"/>
      <path id="Path_922" data-name="Path 922" d="M170.275,48h-1.183a.592.592,0,0,0,0,1.183h1.183a.592.592,0,1,0,0-1.183Zm0,0" transform="translate(-155.575 -44.45)" fill="#01a3f0"/>
      <path id="Path_923" data-name="Path 923" d="M135.677,216.574a.592.592,0,0,0-.837,0l-5.858,5.858a.592.592,0,1,0,.837.837l5.858-5.858A.592.592,0,0,0,135.677,216.574Zm0,0" transform="translate(-118.813 -200.397)" fill="#01a3f0"/>
      <path id="Path_924" data-name="Path 924" d="M122.794,213.816l3.347-3.348a.592.592,0,0,0-.837-.837l-3.347,3.348a.592.592,0,1,0,.837.837Zm0,0" transform="translate(-112.308 -193.974)" fill="#01a3f0"/>
      <path id="Path_925" data-name="Path 925" d="M173.3,257.45l-3.347,3.348a.592.592,0,1,0,.837.837l3.347-3.348a.592.592,0,1,0-.837-.837Zm0,0" transform="translate(-156.758 -238.242)" fill="#01a3f0"/>
      <path id="Path_926" data-name="Path 926" d="M283.458,360a.592.592,0,0,0-.592.592v1.775h-1.775a.592.592,0,0,0,0,1.183h2.367a.592.592,0,0,0,.592-.592v-2.367A.592.592,0,0,0,283.458,360Zm0,0" transform="translate(-259.292 -333.375)" fill="#01a3f0"/>
      <path id="Path_927" data-name="Path 927" d="M242.275,392h-1.183a.592.592,0,1,0,0,1.183h1.183a.592.592,0,1,0,0-1.183Zm0,0" transform="translate(-222.25 -363.008)" fill="#01a3f0"/>
    </g>
    <circle id="Ellipse_22" data-name="Ellipse 22" cx="6.5" cy="6.5" r="6.5" transform="translate(308 549)" fill="#01a3f0"/>
  </g>
</svg>
