<svg xmlns="http://www.w3.org/2000/svg" width="50.185" height="48.024" viewBox="0 0 50.185 48.024">
  <g id="hairdryer" transform="matrix(0.883, 0.469, -0.469, 0.883, 27.23, -18.837)">
    <g id="Group_176" data-name="Group 176" transform="translate(0 21.334)">
      <g id="Group_175" data-name="Group 175" transform="translate(0 0)">
        <path id="Path_955" data-name="Path 955" d="M32.7,26.359,15.127,21.965A21.129,21.129,0,0,0,10,21.334,9.985,9.985,0,0,0,3.333,38.767v13.4a5.833,5.833,0,0,0,11.667,0V40.726c.042-.01.085-.013.127-.024L32.7,36.309a.833.833,0,0,0,.631-.808V27.167A.833.833,0,0,0,32.7,26.359ZM13.333,52.167a4.167,4.167,0,0,1-8.333,0V39.981a9.926,9.926,0,0,0,5,1.353,21.108,21.108,0,0,0,3.333-.3V52.167ZM31.667,34.85,14.723,39.086A19.486,19.486,0,0,1,10,39.667,8.333,8.333,0,0,1,10,23a19.486,19.486,0,0,1,4.723.581l16.943,4.237Z" transform="translate(0 -21.334)" fill="#03a2ed"/>
        <path id="Path_956" data-name="Path 956" d="M49.334,64A6.667,6.667,0,1,0,56,70.668,6.674,6.674,0,0,0,49.334,64Zm0,11.667a5,5,0,1,1,5-5A5.005,5.005,0,0,1,49.334,75.668Z" transform="translate(-39.334 -60.668)" fill="#03a2ed"/>
        <path id="Path_957" data-name="Path 957" d="M448.831,87.829a.827.827,0,0,0,.2-.025l3.333-.833a.833.833,0,1,0-.4-1.616l-3.333.833a.833.833,0,0,0,.2,1.641Z" transform="translate(-412.999 -80.329)" fill="#03a2ed"/>
        <path id="Path_958" data-name="Path 958" d="M448.833,140.334h3.333a.833.833,0,0,0,0-1.667h-3.333a.833.833,0,1,0,0,1.667Z" transform="translate(-413 -129.5)" fill="#03a2ed"/>
        <path id="Path_959" data-name="Path 959" d="M452.367,182.185l-3.333-.833a.833.833,0,1,0-.4,1.616l3.333.833a.833.833,0,0,0,.4-1.616Z" transform="translate(-412.999 -168.826)" fill="#03a2ed"/>
        <path id="Path_960" data-name="Path 960" d="M85.333,320.833V327.5a.833.833,0,0,0,.833.833H89.5a.833.833,0,0,0,.833-.833v-6.667A.833.833,0,0,0,89.5,320H86.166A.833.833,0,0,0,85.333,320.833Zm1.667.833h1.667v1.667H87ZM87,325h1.667v1.667H87Z" transform="translate(-78.666 -296.667)" fill="#03a2ed"/>
        <circle id="Ellipse_26" data-name="Ellipse 26" cx="5.5" cy="5.5" r="5.5" transform="translate(4.698 4.726)" fill="#03a2ed"/>
        <rect id="Rectangle_213" data-name="Rectangle 213" width="3" height="6" transform="translate(7.795 24.2)" fill="#03a2ed"/>
      </g>
    </g>
  </g>
</svg>
