<svg xmlns="http://www.w3.org/2000/svg" width="27.382" height="31.126" viewBox="0 0 27.382 31.126">
  <g id="Bi-Mate-ina-tab-bar" transform="translate(-12.108 -3.351)">
    <path id="Union_1" data-name="Union 1" d="M14.445,29.449a33.835,33.835,0,0,1-9.672-5.231,2.33,2.33,0,0,1-.868-1.039,2.188,2.188,0,0,1-.149-.585,2.427,2.427,0,0,1-.021-.719c.007-.059.017-.117.028-.171.545-2.85,4.953-6.868,7.706-9.377,2.8-2.555,6.411-5.688,10.647-5.231a5.261,5.261,0,0,1,3.942,2.031c.96,1.481.566,3.25.24,4.6a14.481,14.481,0,0,1-4.552,7.31c-.326.276-.666.537-1.017.785a7,7,0,0,1,2.4,1.973,4.35,4.35,0,0,1,1.006,3.489,4.364,4.364,0,0,1-2.6,2.662,5.664,5.664,0,0,1-2.363.476A14.984,14.984,0,0,1,14.445,29.449Zm-7.916-5.9a1.8,1.8,0,0,0,.426.4,24.717,24.717,0,0,0,7.07,3.823c2.848.973,4.185.8,5.183.366a3.186,3.186,0,0,0,1.9-1.945,3.178,3.178,0,0,0-.735-2.551,4.64,4.64,0,0,0-.933-.925Zm5.32-8.292c-2.012,1.834-5.234,4.771-5.632,6.854-.008.04-.015.082-.021.125s-.01.109-.012.161l13.275-.855a10.586,10.586,0,0,0,3.227-5.258,4.222,4.222,0,0,0-.175-3.365,3.848,3.848,0,0,0-2.881-1.485,5.666,5.666,0,0,0-.608-.033C16.188,11.4,13.763,13.513,11.849,15.257ZM1.165,19.68C-.784,18.93.287,12.5.351,12.123c.3-1.726.845-4.883,3.24-6.171a4.671,4.671,0,0,1,1.048-.429A4.49,4.49,0,0,0,2.707,2.031a.809.809,0,0,1-.83.152.819.819,0,1,1,1.064-.478A5.029,5.029,0,0,1,4.569,3.373a4.729,4.729,0,0,1,.281.553c.022-.11.038-.215.073-.33a3.6,3.6,0,0,1,.823-1.421c-.081-.224-.163-.423-.24-.583A.812.812,0,1,1,6.091.819a.807.807,0,0,1-.2.515,6.664,6.664,0,0,1,.774,2.5,6.6,6.6,0,0,1-.062,1.813A3.674,3.674,0,0,1,8.4,7.655c.3.749.606,2.177-.718,5.034-1.345,2.9-4.274,7.063-6.122,7.063A1.08,1.08,0,0,1,1.165,19.68Zm2.3-10.027c-1.515.816-1.86,2.813-2.049,3.9-.041.238-.718,4.306.514,4.781,1.138.437,3.207-2.451,4.12-4.423.838-1.807.643-2.71.455-3.184A2.252,2.252,0,0,0,5.247,9.4a1.752,1.752,0,0,0-.568-.093A2.6,2.6,0,0,0,3.469,9.653ZM6,5.451a6.155,6.155,0,0,0,.1-1.7,6.08,6.08,0,0,0-.27-1.353,3.85,3.85,0,0,0-.729,1.268,3.9,3.9,0,0,0-.138.522,5.061,5.061,0,0,1,.294,1.236c.086-.007.174-.011.263-.011A2.765,2.765,0,0,1,6,5.451Z" transform="translate(12.523 3.701)" fill="#bababa" stroke="#bababa" stroke-miterlimit="10" stroke-width="0.7"/>
  </g>
</svg>
