<svg xmlns="http://www.w3.org/2000/svg" width="20.668" height="28.321" viewBox="0 0 20.668 28.321">
  <g id="cart" transform="translate(-193.335 -62.25)">
    <path id="Path_114" data-name="Path 114" d="M213.1,93.985V91.848a8.928,8.928,0,0,1,8.746-9.1h0a8.928,8.928,0,0,1,8.746,9.1v2.137" transform="translate(-18.16 -19.129)" fill="#079adf" stroke="#fff" stroke-miterlimit="10" stroke-width="0.5"/>
    <path id="Path_115" data-name="Path 115" d="M212.7,208.2l.417-.423a.265.265,0,0,0-.377-.371l-.435.442-1.455-1.3,2.126-2.159a.265.265,0,0,0-.377-.371l-2.144,2.177-1.339-1.2.381-.381a.265.265,0,0,0,0-.374h0a.265.265,0,0,0-.374,0l-.4.4-.285-.255a.165.165,0,0,0-.233.013l-.074.083a.165.165,0,0,0,.013.233l.266.238-1.126,1.126-1.482-1.325a.264.264,0,0,0-.024-.344h0a.264.264,0,0,0-.367-.006l-.014-.013a.165.165,0,0,0-.233.013l-.074.083a.165.165,0,0,0,.009.228l-1.165,1.165-1.569-1.327a.261.261,0,0,0-.279-.236l-.535-.452a.165.165,0,0,0-.233.019l-.072.085a.165.165,0,0,0,.019.233l.456.385-1.335,1.335-1.376-1.143.03-.03a.265.265,0,0,0-.374-.374l-.064.064-.706-.586a.22.22,0,0,0-.31.029l0,0a.22.22,0,0,0,.029.31l.674.56-1.311,1.311-2.481-2.1a.22.22,0,0,0-.31.026l0,0a.22.22,0,0,0,.026.31l2.452,2.073-1.269,1.269-1.018-.861a.22.22,0,0,0-.31.026l0,0a.22.22,0,0,0,.026.31l.99.837-.981.981a.265.265,0,0,0,0,.374l.006,0h0a.165.165,0,0,0,.011.233l1.382,1.257-.866.866a.265.265,0,0,0,.374.374l.884-.884,1.444,1.313-1.125,1.125-.923-.825a.165.165,0,0,0-.233.013l-.074.083a.165.165,0,0,0,.013.233l.9.808-.139.139a.265.265,0,0,0,.374.374l.16-.16,1.479,1.322-.471.471a.265.265,0,1,0,.374.374l.492-.492,1.427,1.275-.255.259a.265.265,0,0,0,.377.371l.273-.277,1.355,1.212a.165.165,0,0,0,.233-.013l.074-.083a.165.165,0,0,0-.013-.233l-1.339-1.2,1.083-1.1,1.443,1.313-.925.939a.265.265,0,1,0,.377.371l.94-.954,1.237,1.125a.165.165,0,0,0,.233-.011l.075-.083a.165.165,0,0,0-.011-.233l-1.224-1.113,1.3-1.318,1.364,1.153-1.165,1.183a.265.265,0,0,0,0,.374h0a.265.265,0,0,0,.374,0l1.194-1.212.5.419a.22.22,0,0,0,.31-.026l0,0a.22.22,0,0,0-.026-.31l-.47-.4,1.258-1.278.878.742a.22.22,0,0,0,.31-.026l0,0a.22.22,0,0,0-.026-.31l-.852-.72,1.393-1.414.753.626a.22.22,0,0,0,.31-.029l0,0a.22.22,0,0,0-.029-.31l-.724-.6,1.246-1.265.468.4a.165.165,0,0,0,.233-.02l.072-.085a.165.165,0,0,0-.019-.233l-.442-.374,1.065-1.081a.265.265,0,0,0,0-.374h0l-.006,0a.164.164,0,0,0-.039-.052l-1.473-1.317,1.117-1.134.425.38a.165.165,0,0,0,.233-.013l.074-.083a.165.165,0,0,0-.013-.233Zm-3.9-2.891,1.342,1.2-1.117,1.134-1.351-1.207Zm-4.158,4.158,1.3-1.3,1.4,1.184-1.279,1.3Zm1.108,1.5-1.36,1.381-1.425-1.2,1.36-1.36Zm-1.517-1.839-1.53-1.271,1.316-1.316,1.518,1.283Zm-.316.316-1.357,1.357-1.518-1.283,1.344-1.344Zm-3.28-.27-1.494-1.263,1.329-1.329,1.506,1.251Zm-.316.316-1.269,1.269-1.494-1.263,1.269-1.269Zm.406.343,1.518,1.283-1.269,1.269-1.518-1.283Zm-.067,2.868-1.169,1.169-1.467-1.334,1.118-1.118Zm.406.343,1.44,1.218-1.221,1.24-1.4-1.275Zm.316-.316,1.269-1.269,1.427,1.207-1.258,1.277Zm3.1.281,1.493,1.262-1.258,1.278-1.493-1.262Zm.313-.318,1.363-1.384,1.5,1.25-1.375,1.4Zm1.677-1.7,1.276-1.3,1.493,1.262-1.264,1.283Zm1.587-1.611,1.051-1.067,1.455,1.3-1.013,1.028Zm-.405-.343-1.4-1.182,1.105-1.105,1.353,1.21Zm-2.167-3.962,1.479,1.322-1.116,1.116-1.518-1.283Zm-3.368-.138,1.494,1.263-1.32,1.32-1.506-1.251Zm-3.433.166,1.376,1.143-1.326,1.326-1.365-1.154Zm-1.631,1.631,1.365,1.154-1.269,1.269L195.792,208Zm-2.58,2.58.995-.995,1.365,1.154-1.041,1.041Zm1.711,1.556,1.054-1.054,1.494,1.263-1.1,1.1Zm.4,3.1,1.122-1.122,1.467,1.334-1.11,1.11Zm3.3,2.949-1.425-1.273,1.106-1.106,1.4,1.277Zm3.231.251-1.443-1.313,1.235-1.254,1.493,1.262Zm3.367-.127-1.364-1.153,1.258-1.278,1.364,1.153Zm1.572-1.6-1.364-1.153,1.378-1.4,1.375,1.142Zm1.7-1.729-1.375-1.142,1.26-1.28,1.364,1.153Zm2.529-2.567-.968.983-1.364-1.153,1-1.018Zm-1.414-1.856-1.455-1.3,1.117-1.134,1.455,1.3Z" transform="translate(0 -129.177)" fill="#fff" stroke="#fff" stroke-miterlimit="10" stroke-width="0.01"/>
    <path id="Path_117" data-name="Path 117" d="M214.777,199.1a.989.989,0,0,0-1.241-.944,46.763,46.763,0,0,1-9.276,1.1,40.827,40.827,0,0,1-8.8-1.1,1,1,0,0,0-1.26.859l0,.087a.941.941,0,0,0,.75.938,41.233,41.233,0,0,0,9.224,1.2,47.586,47.586,0,0,0,9.842-1.224.951.951,0,0,0,.766-.861Z" transform="translate(-0.775 -124.554)" fill="#fff"/>
    <path id="Path_116" data-name="Path 116" d="M204.545,63h.006C199.273,63,195,67.845,195,73.847v5.075c0,6,4.269,10.9,9.547,10.9h0c5.279,0,9.561-4.9,9.561-10.9V73.847C214.111,67.845,209.824,63,204.545,63Z" transform="translate(-0.915)" fill="none" stroke="#fff" stroke-miterlimit="10" stroke-width="1.5"/>
  </g>
</svg>
