<svg xmlns="http://www.w3.org/2000/svg" width="46.671" height="32.67" viewBox="0 0 46.671 32.67">
  <g id="tv" transform="translate(0 -76.802)">
    <path id="Path_953" data-name="Path 953" d="M11.119,85.69l-2.586-.358V104.1l2.586-.358a104.015,104.015,0,0,1,12.075-.962c1.566-.035,3.126-.035,4.692,0a104.014,104.014,0,0,1,12.075.962l2.586.358V85.332l-2.586.358A105.564,105.564,0,0,1,11.119,85.69Z" transform="translate(-2.198 -4.764)" fill="#03a2ed"/>
    <path id="Path_954" data-name="Path 954" d="M46.4,76.993a.777.777,0,0,0-.618-.184l-3.43.474a139.267,139.267,0,0,1-38.042,0l-3.43-.474a.778.778,0,0,0-.877.664A.836.836,0,0,0,0,77.579v24.891a.777.777,0,0,0,.779.777.8.8,0,0,0,.106-.007l3.431-.474a137.794,137.794,0,0,1,15.131-1.239v6.389H14v1.556H32.67v-1.556H27.225v-6.389a137.77,137.77,0,0,1,15.132,1.239l3.43.474a.692.692,0,0,0,.107.008.778.778,0,0,0,.778-.778V77.579A.778.778,0,0,0,46.4,76.993ZM21,107.916V101.49c.2,0,.41,0,.614-.007,1.145-.014,2.293-.014,3.438,0,.205,0,.41,0,.614.007v6.426Zm24.114-6.337-2.545-.352a139.361,139.361,0,0,0-15.346-1.255V99.96l-.761-.017c-1.038-.023-2.083-.034-3.129-.034s-2.091.012-3.129.034l-.761.017v.011A139.361,139.361,0,0,0,4.1,101.226l-2.546.352V78.471l2.546.353a140.769,140.769,0,0,0,38.468,0l2.546-.353v23.107Z" fill="#03a2ed"/>
  </g>
</svg>
