<svg xmlns="http://www.w3.org/2000/svg" width="39.962" height="33.949" viewBox="0 0 39.962 33.949">
  <g id="Group_110" data-name="Group 110" transform="translate(-32.304 -531.75)">
    <g id="cloth" transform="translate(-51 376.768)">
      <g id="Group_105" data-name="Group 105" transform="translate(83.543 155.232)">
        <path id="Path_911" data-name="Path 911" d="M39.344,32.491,32.19,25.337a.357.357,0,0,0-.252-.1H7.535a.354.354,0,0,0-.278.138L1.608,31.018.135,32.491c-.208.23-.15.338,0,.505l5.639,5.639a.357.357,0,0,0,.505,0l.4-.4.493-.493V58.324a.357.357,0,0,0,.357.357h24.4a.357.357,0,0,0,.357-.357V37.73l.905.906a.357.357,0,0,0,.5,0L39.344,33A.346.346,0,0,0,39.344,32.491ZM18.585,25.946h2.3v1.786h-2.3Zm-.714,0v2.143a.357.357,0,0,0,.357.357h3.016a.357.357,0,0,0,.357-.357V25.946h4.437a6.308,6.308,0,0,1-12.6,0ZM6.027,37.878.892,32.744l.968-.968L6.995,36.91Zm25.952-5.087a.357.357,0,0,0-.357.357s-.042,3.661-.042,3.72v21.1H7.892V36.875c0-.054-.035-3.728-.035-3.728a.357.357,0,0,0-.714,0v2.9L2.365,31.271,7.69,25.946h5.036a7.023,7.023,0,0,0,14.028,0h5.036l5.324,5.325-4.778,4.777v-2.9A.357.357,0,0,0,31.979,32.791Zm1.473,5.087-.968-.968,5.135-5.134.968.968Z" transform="translate(0 -25.232)" fill="#00a6f4" stroke="#03a2ed" stroke-width="0.5"/>
        <path id="Path_912" data-name="Path 912" d="M91.253,108.1H86.275a.357.357,0,0,0-.357.357v3.371c0,1.561,2.424,2.691,2.7,2.815a.357.357,0,0,0,.292,0c.276-.124,2.7-1.254,2.7-2.815v-3.371A.358.358,0,0,0,91.253,108.1Zm-.357,3.729c0,.87-1.423,1.747-2.132,2.094-.682-.336-2.132-1.229-2.132-2.094V108.81H90.9Z" transform="translate(-75.691 -98.232)" fill="#00a6f4" stroke="#03a2ed" stroke-width="0.5"/>
      </g>
      <rect id="Rectangle_188" data-name="Rectangle 188" width="24" height="14" transform="translate(91 174.232)" fill="#01a3f0"/>
    </g>
    <path id="Rectangle_190" data-name="Rectangle 190" d="M.6,0H12a0,0,0,0,1,0,0V1.2a0,0,0,0,1,0,0H.6A.6.6,0,0,1,0,.6v0A.6.6,0,0,1,.6,0Z" transform="translate(52 546)" fill="#01a3f0"/>
  </g>
</svg>
