<svg xmlns="http://www.w3.org/2000/svg" width="37.419" height="40" viewBox="0 0 37.419 40">
  <g id="sofa" transform="translate(-24 -8)">
    <rect id="Rectangle_212" data-name="Rectangle 212" width="18" height="14" rx="4" transform="translate(34 12)" fill="#03a2ed"/>
    <path id="Path_952" data-name="Path 952" d="M57.548,23.484h-1.29V11.871A3.875,3.875,0,0,0,52.387,8H33.032a3.875,3.875,0,0,0-3.871,3.871V23.484h-1.29A3.875,3.875,0,0,0,24,27.355V38.968a3.877,3.877,0,0,0,3.226,3.816v4.571a.645.645,0,0,0,.645.645h2.581a.645.645,0,0,0,.626-.489l1.169-4.673H53.173l1.169,4.673a.645.645,0,0,0,.626.489h2.581a.645.645,0,0,0,.645-.645V42.784a3.877,3.877,0,0,0,3.226-3.816V27.355A3.875,3.875,0,0,0,57.548,23.484ZM29.948,46.71H28.516V42.839h2.4Zm3.085-5.161H27.871a2.584,2.584,0,0,1-2.581-2.581V27.355a2.584,2.584,0,0,1,2.581-2.581h2.581a2.584,2.584,0,0,1,2.581,2.581Zm18.065,0H34.323V37.677H51.1Zm0-5.161H34.323V32.516A2.584,2.584,0,0,1,36.9,29.935H48.516A2.584,2.584,0,0,1,51.1,32.516Zm0-9.032v2.279a3.855,3.855,0,0,0-2.581-.989H36.9a3.855,3.855,0,0,0-2.581.989V27.355a3.875,3.875,0,0,0-3.871-3.871V11.871A2.584,2.584,0,0,1,33.032,9.29H52.387a2.584,2.584,0,0,1,2.581,2.581V23.484A3.875,3.875,0,0,0,51.1,27.355ZM56.9,46.71H55.472L54.5,42.839h2.4Zm3.226-7.742a2.584,2.584,0,0,1-2.581,2.581H52.387V27.355a2.584,2.584,0,0,1,2.581-2.581h2.581a2.584,2.584,0,0,1,2.581,2.581Z" fill="#03a2ed"/>
  </g>
</svg>
