<svg xmlns="http://www.w3.org/2000/svg" width="36.441" height="36.441" viewBox="0 0 36.441 36.441">
  <g id="Group_106" data-name="Group 106" transform="translate(-123 -534.559)">
    <g id="Smartphone" transform="translate(168.09 431) rotate(90)">
      <path id="Path_914" data-name="Path 914" d="M156.114,456h-3.527a.588.588,0,1,0,0,1.176h3.527a.588.588,0,1,0,0-1.176Z" transform="translate(-29.649 -415.086)" fill="#01a3f0"/>
      <path id="Path_915" data-name="Path 915" d="M225.176,456h-.588a.588.588,0,1,0,0,1.176h.588a.588.588,0,1,0,0-1.176Z" transform="translate(-96.359 -415.086)" fill="#01a3f0"/>
    </g>
    <g id="Group_108" data-name="Group 108" transform="translate(-6.559)">
      <g id="Smartphone-2" data-name="Smartphone" transform="translate(10 526.559)">
        <path id="Path_914-2" data-name="Path 914" d="M156.114,456h-3.527a.588.588,0,1,0,0,1.176h3.527a.588.588,0,1,0,0-1.176Z" transform="translate(-29.649 -415.086)" fill="#01a3f0"/>
        <path id="Path_915-2" data-name="Path 915" d="M225.176,456h-.588a.588.588,0,1,0,0,1.176h.588a.588.588,0,1,0,0-1.176Z" transform="translate(-96.359 -415.086)" fill="#01a3f0"/>
        <g id="Group_106-3" data-name="Group 106">
          <path id="Path_913" data-name="Path 913" d="M137.045,8H122.939A2.942,2.942,0,0,0,120,10.939V41.5a2.942,2.942,0,0,0,2.939,2.939h14.106a2.942,2.942,0,0,0,2.939-2.939V10.939A2.942,2.942,0,0,0,137.045,8Zm-3.068,1.176-.353,1.763h-7.265l-.353-1.763ZM138.808,41.5a1.765,1.765,0,0,1-1.763,1.763H122.939a1.765,1.765,0,0,1-1.763-1.763V10.939a1.765,1.765,0,0,1,1.763-1.763h1.869l.493,2.466a.588.588,0,0,0,.576.472h8.229a.588.588,0,0,0,.576-.473l.493-2.466h1.869a1.765,1.765,0,0,1,1.763,1.763Z" transform="translate(0)" fill="#01a3f0"/>
        </g>
      </g>
      <g id="Group_107" data-name="Group 107" transform="translate(174 431) rotate(90)">
        <path id="Path_913-2" data-name="Path 913" d="M137.045,8H122.939A2.942,2.942,0,0,0,120,10.939V41.5a2.942,2.942,0,0,0,2.939,2.939h14.106a2.942,2.942,0,0,0,2.939-2.939V10.939A2.942,2.942,0,0,0,137.045,8Zm-3.068,1.176-.353,1.763h-7.265l-.353-1.763ZM138.808,41.5a1.765,1.765,0,0,1-1.763,1.763H122.939a1.765,1.765,0,0,1-1.763-1.763V10.939a1.765,1.765,0,0,1,1.763-1.763h1.869l.493,2.466a.588.588,0,0,0,.576.472h8.229a.588.588,0,0,0,.576-.473l.493-2.466h1.869a1.765,1.765,0,0,1,1.763,1.763Z" transform="translate(0)" fill="#01a3f0"/>
        <rect id="Rectangle_191" data-name="Rectangle 191" width="16" height="24" transform="translate(121.903 14.441)" fill="#01a3f0"/>
      </g>
    </g>
  </g>
</svg>
