<svg xmlns="http://www.w3.org/2000/svg" width="47" height="25" viewBox="0 0 47 25">
  <g id="Group_181" data-name="Group 181" transform="translate(-32 -360)">
    <g id="Group_177" data-name="Group 177" transform="translate(9 -5)">
      <g id="Rectangle_216" data-name="Rectangle 216" transform="translate(27 368)" fill="#fff" stroke="#03a2ed" stroke-width="1.5">
        <rect width="5" height="20" rx="2.5" stroke="none"/>
        <rect x="0.75" y="0.75" width="3.5" height="18.5" rx="1.75" fill="none"/>
      </g>
      <g id="Rectangle_217" data-name="Rectangle 217" transform="translate(31 365)" fill="#fff" stroke="#03a2ed" stroke-width="1.5">
        <rect width="5" height="25" rx="2.5" stroke="none"/>
        <rect x="0.75" y="0.75" width="3.5" height="23.5" rx="1.75" fill="none"/>
      </g>
      <g id="Rectangle_218" data-name="Rectangle 218" transform="translate(23 374)" fill="#fff" stroke="#03a2ed" stroke-width="1.5">
        <rect width="5" height="8" rx="2.5" stroke="none"/>
        <rect x="0.75" y="0.75" width="3.5" height="6.5" rx="1.75" fill="none"/>
      </g>
    </g>
    <g id="Group_178" data-name="Group 178" transform="translate(43.257 -5)">
      <g id="Rectangle_216-2" data-name="Rectangle 216" transform="translate(26.743 368)" fill="#fff" stroke="#03a2ed" stroke-width="1.5">
        <rect width="5" height="20" rx="2.5" stroke="none"/>
        <rect x="0.75" y="0.75" width="3.5" height="18.5" rx="1.75" fill="none"/>
      </g>
      <g id="Rectangle_217-2" data-name="Rectangle 217" transform="translate(22.743 365)" fill="#fff" stroke="#03a2ed" stroke-width="1.5">
        <rect width="5" height="25" rx="2.5" stroke="none"/>
        <rect x="0.75" y="0.75" width="3.5" height="23.5" rx="1.75" fill="none"/>
      </g>
      <g id="Rectangle_218-2" data-name="Rectangle 218" transform="translate(30.743 374)" fill="#fff" stroke="#03a2ed" stroke-width="1.5">
        <rect width="5" height="8" rx="2.5" stroke="none"/>
        <rect x="0.75" y="0.75" width="3.5" height="6.5" rx="1.75" fill="none"/>
      </g>
    </g>
    <g id="Rectangle_219" data-name="Rectangle 219" transform="translate(44 369)" fill="#03a2ed" stroke="#03a2ed" stroke-width="1">
      <rect width="23" height="8" stroke="none"/>
      <rect x="0.5" y="0.5" width="22" height="7" fill="none"/>
    </g>
  </g>
</svg>
