<svg xmlns="http://www.w3.org/2000/svg" width="23.978" height="31.645" viewBox="0 0 23.978 31.645">
  <g id="Supr-h-ina-tab-bar" transform="translate(-201 -79.007)">
    <g id="Group_91" data-name="Group 91" transform="translate(201.5 79.083)">
      <path id="Path_118" data-name="Path 118" d="M208.939,91.85V89.612c0-5.263,4.7-9.529,10.494-9.529h0c5.8,0,10.494,4.266,10.494,9.529V91.85" transform="translate(-207.928 -79.159)" fill="#fff" stroke="#bababa" stroke-miterlimit="10" stroke-width="2"/>
    </g>
    <path id="Path_122" data-name="Path 122" d="M232.3,304.12a61.184,61.184,0,0,1-8.858-.731.83.83,0,0,0-.957.821v1.249a10.131,10.131,0,0,0,10.355,9.891h0A10.131,10.131,0,0,0,243.2,305.46v-1.347a.83.83,0,0,0-.955-.821A70.533,70.533,0,0,1,232.3,304.12Z" transform="translate(-19.699 -205.199)" fill="#bababa" stroke="#bababa" stroke-miterlimit="10" stroke-width="1"/>
    <path id="Path_125" data-name="Path 125" d="M230.01,254.12c.031-.96-.626-1.7-1.32-1.476a34.822,34.822,0,0,1-9.867,1.717,30.5,30.5,0,0,1-9.363-1.714c-.662-.227-1.311.423-1.341,1.343l0,.136a1.466,1.466,0,0,0,.8,1.466,30.9,30.9,0,0,0,9.811,1.871,35.553,35.553,0,0,0,10.469-1.914,1.418,1.418,0,0,0,.815-1.346Z" transform="translate(-6.073 -158.012)" fill="#fff" stroke="#bababa" stroke-miterlimit="10" stroke-width="1"/>
    <path id="Path_126" data-name="Path 126" d="M225.477,230.115c.032-.957-.657-1.691-1.385-1.472a38.267,38.267,0,0,1-10.354,1.712,33.5,33.5,0,0,1-9.825-1.709c-.695-.226-1.376.422-1.407,1.339l0,.136a1.45,1.45,0,0,0,.837,1.461,33.92,33.92,0,0,0,10.295,1.865,39.05,39.05,0,0,0,10.986-1.908,1.41,1.41,0,0,0,.855-1.341Z" transform="translate(-1 -137.479)" fill="#fff" stroke="#bababa" stroke-miterlimit="10" stroke-width="1"/>
  </g>
</svg>
