<svg xmlns="http://www.w3.org/2000/svg" width="37.479" height="31.879" viewBox="0 0 37.479 31.879">
  <g id="duck" transform="translate(-4.751 -13.608)">
    <path id="Path_962" data-name="Path 962" d="M41.737,22.057a1.621,1.621,0,0,0,.49-1.251,1.6,1.6,0,0,0-.575-1.152,1.642,1.642,0,0,0-1.252-.368,17.006,17.006,0,0,1-4.183-.194,8.023,8.023,0,1,0-14.737,6.224,12.24,12.24,0,0,0-4.718,1.155c-3.675,1.811-9.075,1.189-11.18-.036a.554.554,0,0,0-.832.479c0,5.584,1.757,18.572,18.028,18.572A17.107,17.107,0,0,0,32.451,42.5a10.324,10.324,0,0,0,4.719-8.5c0-3.639-1.373-5.725-2.7-6.891a7.929,7.929,0,0,0,1.243-1.761C38.438,25.067,40.992,22.781,41.737,22.057Zm-1.2-1.672a.525.525,0,0,1,.405.118.5.5,0,0,1,.181.362.518.518,0,0,1-.156.4c-1.388,1.349-3.5,2.8-5.393,3a2.9,2.9,0,0,1-.127-2.969c.194-.348.4-.72.594-1.107a17.776,17.776,0,0,0,4.5.2Zm-7.224,7.221c1.253.911,2.748,2.761,2.752,6.4A9.227,9.227,0,0,1,31.813,41.6,15.979,15.979,0,0,1,22.78,44.38c-14.075,0-16.7-10-16.907-16.581a15.624,15.624,0,0,0,11.381-.335,11.829,11.829,0,0,1,5.187-1.072.553.553,0,0,0,.454-.866,6.916,6.916,0,1,1,12.275-6.084c-.224.455-.463.9-.692,1.31a4,4,0,0,0,.208,4.169,6.881,6.881,0,0,1-1.421,1.826.554.554,0,0,0,.048.857Z" transform="translate(0 0)" fill="#03a2ed"/>
    <path id="Path_963" data-name="Path 963" d="M77.325,24.713a2.451,2.451,0,1,0,2.451,2.451,2.451,2.451,0,0,0-2.451-2.451Zm0,3.8a1.344,1.344,0,1,1,1.344-1.344A1.344,1.344,0,0,1,77.325,28.508Z" transform="translate(-47.944 -7.592)" fill="#03a2ed"/>
    <path id="Path_964" data-name="Path 964" d="M44.316,69.3c-1.06-2.562-4.476-2.168-8.432-1.708a34.917,34.917,0,0,1-7.06.332.554.554,0,0,0-.6.656c.04.208,1.053,5.1,7.367,6.4a15,15,0,0,0,3,.325c2.309,0,4.133-.667,5.189-1.947A3.861,3.861,0,0,0,44.316,69.3ZM42.927,72.65c-1.192,1.445-3.85,1.909-7.11,1.241-4.242-.868-5.774-3.517-6.278-4.807a40.559,40.559,0,0,0,6.472-.392c3.511-.406,6.541-.759,7.282,1.033A2.786,2.786,0,0,1,42.927,72.65Z" transform="translate(-16.045 -36.681)" fill="#03a2ed"/>
    <rect id="Rectangle_214" data-name="Rectangle 214" width="13" height="6" rx="3" transform="matrix(1, 0.017, -0.017, 1, 15.302, 31.391)" fill="#03a2ed"/>
    <path id="Path_965" data-name="Path 965" d="M1.5,0A1.5,1.5,0,0,1,3,1.5c0,.828.085,2.191-.743,2.191A3.035,3.035,0,0,1,0,1.5,1.5,1.5,0,0,1,1.5,0Z" transform="translate(13.249 31.487)" fill="#03a2ed"/>
  </g>
</svg>
